<svg xmlns="http://www.w3.org/2000/svg" width="512" height="512"><path d="M190.053 180.499c-38.438 0-71.821-27.363-79.365-65.068L91.293 18.443a15.01 15.01 0 0 1 4.102-13.55 15.02 15.02 0 0 1 13.55-4.102l96.987 19.395C243.637 27.73 271 61.114 271 99.552c0 44.633-36.313 80.947-80.947 80.947z" fill="#7fe881"/><path d="M275.395 206.104l-90-90a15 15 0 0 1 21.211-21.211l90 90a15 15 0 0 1 0 21.211c-5.86 5.86-15.352 5.86-21.211 0zm152.142 275.395c-36.138 0-65.537-29.399-65.537-65.537 0-30.132 20.405-56.279 49.644-63.574l81.724-20.435c5.112-1.289 10.532.234 14.238 3.94 3.721 3.721 5.229 9.126 3.94 14.238l-20.435 81.724c-7.295 29.239-33.442 49.644-63.574 49.644z" fill="#5bc980"/><path d="M336.395 507.104a15 15 0 0 1 0-21.211l75-75a15 15 0 0 1 21.211 21.211l-75 75c-5.86 5.86-15.352 5.86-21.211 0z" fill="#00ab5e"/><path d="M512 151.499c0 66.167-53.833 120-120 120H15c-8.291 0-15-6.709-15-15s6.709-15 15-15h377c49.629 0 90-40.371 90-90 0-33.091-26.909-60-60-60s-60 26.909-60 60c0 16.538 13.462 30 30 30s30-13.462 30-30c0-8.291 6.709-15 15-15s15 6.709 15 15c0 33.091-26.909 60-60 60s-60-26.909-60-60c0-49.629 40.371-90 90-90s90 40.371 90 90z" fill="#76e2f8"/><path d="M256 481.499c-41.353 0-75-33.647-75-75 0-24.814 20.186-45 45-45s45 20.186 45 45c0 8.291-6.709 15-15 15s-15-6.709-15-15c0-8.276-6.724-15-15-15s-15 6.724-15 15c0 24.814 20.186 45 45 45s45-20.186 45-45c0-41.353-33.647-75-75-75H15c-8.291 0-15-6.709-15-15s6.709-15 15-15h211c57.891 0 105 47.109 105 105 0 41.352-33.647 75-75 75z" fill="#25d9f8"/><path d="M106 211.499H15c-8.291 0-15-6.709-15-15s6.709-15 15-15h91c8.291 0 15 6.709 15 15s-6.709 15-15 15z" fill="#76e2f8"/><path d="M136 421.499H15c-8.291 0-15-6.709-15-15s6.709-15 15-15h121c8.291 0 15 6.709 15 15s-6.709 15-15 15z" fill="#25d9f8"/></svg>
